<svg width="100" height="100" viewBox="0 0 100 100" fill="none" xmlns="http://www.w3.org/2000/svg">
<circle cx="50" cy="50" r="50" fill="#0B1C47"/>
<path d="M50 69.4C55.0922 69.4 59.9758 67.4088 63.5765 63.8643C67.1772 60.3199 69.2 55.5126 69.2 50.5C69.2 45.4874 67.1772 40.6801 63.5765 37.1357C59.9758 33.5912 55.0922 31.6 50 31.6C44.9078 31.6 40.0242 33.5912 36.4236 37.1357C32.8229 40.6801 30.8 45.4874 30.8 50.5C30.8 55.5126 32.8229 60.3199 36.4236 63.8643C40.0242 67.4088 44.9078 69.4 50 69.4ZM82 50.5C82 58.8543 78.6286 66.8665 72.6274 72.7739C66.6263 78.6813 58.4869 82 50 82C41.5131 82 33.3737 78.6813 27.3726 72.7739C21.3714 66.8665 18 58.8543 18 50.5C18 42.1457 21.3714 34.1335 27.3726 28.2261C33.3737 22.3187 41.5131 19 50 19C58.4869 19 66.6263 22.3187 72.6274 28.2261C78.6286 34.1335 82 42.1457 82 50.5ZM75.6 50.5C75.6 43.8165 72.9029 37.4068 68.1019 32.6809C63.301 27.955 56.7895 25.3 50 25.3C43.2105 25.3 36.699 27.955 31.8981 32.6809C27.0971 37.4068 24.4 43.8165 24.4 50.5C24.4 57.1835 27.0971 63.5932 31.8981 68.3191C36.699 73.045 43.2105 75.7 50 75.7C56.7895 75.7 63.301 73.045 68.1019 68.3191C72.9029 63.5932 75.6 57.1835 75.6 50.5Z" fill="#CEA7C2"/>
</svg>
